<svg width="512" height="512" xmlns="http://www.w3.org/2000/svg">

 <g>
  <title>background</title>
  <rect fill="none" id="canvas_background" height="402" width="582" y="-1" x="-1"/>
 </g>
 <g>
  <title>Layer 1</title>
  <path fill="#43464d" id="svg_1" d="m218.377,329.25c-8.104,-29.714 -28.93,-56.198 -58.843,-70.448c10.228,-11.348 16.466,-26.359 16.466,-42.802l0,-24c0,-35.29 -28.71,-64 -64,-64s-64,28.71 -64,64l0,24c0,16.453 6.245,31.473 16.484,42.823c-28.237,13.54 -50.246,38.832 -58.86,70.425c-5.452,19.978 -5.624,19.88 -5.624,22.752c0,22.43 30.285,30.002 40.236,32.491c40.048,10.013 103.446,10.021 143.527,0c9.952,-2.489 40.237,-10.061 40.237,-32.491c0,-2.859 -0.086,-2.459 -5.623,-22.75zm-138.377,-113.25l0,-24c0,-17.645 14.355,-32 32,-32s32,14.355 32,32l0,24c0,17.645 -14.355,32 -32,32s-32,-14.355 -32,-32zm-46.499,132.646l2.995,-10.977c14.485,-53.131 78.737,-75.433 123.01,-41.604c22.443,17.147 26.775,37.121 30.993,52.582c-30.677,15.069 -126.214,15.122 -156.998,-0.001z"/>
  <path fill="#43464d" id="svg_2" d="m475.313,356.686c-3,-3 -7.07,-4.686 -11.313,-4.686l-80,0c-8.837,0 -16,7.164 -16,16l0,128c0,8.836 7.163,16 16,16l112,0c8.837,0 16,-7.164 16,-16l0,-96c0,-4.244 -1.686,-8.313 -4.687,-11.314l-32,-32zm4.687,123.314l-80,0l0,-96l57.372,0l22.628,22.627l0,73.373z"/>
  <path fill="#43464d" id="svg_3" d="m475.313,180.686c-3,-3 -7.07,-4.686 -11.313,-4.686l-80,0c-8.837,0 -16,7.164 -16,16l0,128c0,8.836 7.163,16 16,16l112,0c8.837,0 16,-7.164 16,-16l0,-96c0,-4.244 -1.686,-8.313 -4.687,-11.314l-32,-32zm4.687,123.314l-80,0l0,-96l57.372,0l22.628,22.627l0,73.373z"/>
  <path fill="#43464d" id="svg_4" d="m507.313,36.686l-32,-32c-3,-3 -7.07,-4.686 -11.313,-4.686l-80,0c-8.837,0 -16,7.164 -16,16l0,128c0,8.836 7.163,16 16,16l112,0c8.837,0 16,-7.164 16,-16l0,-96c0,-4.244 -1.686,-8.313 -4.687,-11.314zm-27.313,91.314l-80,0l0,-96l57.372,0l22.628,22.627l0,73.373z"/>
  <path fill="#43464d" id="svg_5" d="m336,88c8.837,0 16,-7.164 16,-16s-7.163,-16 -16,-16l-64,0c-8.837,0 -16,7.164 -16,16l0,168l-48,0c-8.837,0 -16,7.164 -16,16s7.163,16 16,16l48,0l0,160c0,8.836 7.163,16 16,16l64,0c8.837,0 16,-7.164 16,-16s-7.163,-16 -16,-16l-48,0l0,-144l48,0c8.837,0 16,-7.164 16,-16s-7.163,-16 -16,-16l-48,0l0,-152l48,0z"/>
 </g>
</svg>